<svg
  class="icon inline-block"
  width="18"
  height="18"
  viewBox="0 0 20 20"
  fill="none"
  xmlns="http://www.w3.org/2000/svg"
>
  <circle cx="10" cy="10" r="10" fill="#00AF54" />
  <path
    d="M6.79293 9.87616C6.23178 9.26674 5.28283 9.22761 4.67341 9.78876C4.06399 10.3499 4.02486 11.2989 4.58601 11.9083L6.79293 9.87616ZM9.14148 14.6412L8.03802 15.6572C8.34613 15.9918 8.78942 16.1686 9.24323 16.1377C9.69703 16.1069 10.1123 15.8718 10.3723 15.4985L9.14148 14.6412ZM15.6298 7.95072C16.1034 7.27095 15.9361 6.33604 15.2564 5.86254C14.5766 5.38903 13.6417 5.55625 13.1682 6.23601L15.6298 7.95072ZM4.58601 11.9083L8.03802 15.6572L10.2449 13.6251L6.79293 9.87616L4.58601 11.9083ZM10.3723 15.4985L15.6298 7.95072L13.1682 6.23601L7.91065 13.7838L10.3723 15.4985Z"
    fill="white"
  />
</svg>
