<svg
  class="icon inline-block"
  width="18"
  height="18"
  viewBox="0 0 21 21"
  fill="none"
  xmlns="http://www.w3.org/2000/svg"
>
  <path
    fill-rule="evenodd"
    clip-rule="evenodd"
    d="M20.0537 10.5C20.0537 13.1522 19.0001 15.6957 17.1248 17.5711C15.2494 19.4464 12.7059 20.5 10.0537 20.5C7.40155 20.5 4.85801 19.4464 2.98264 17.5711C1.10728 15.6957 0.0537109 13.1522 0.0537109 10.5C0.0537109 7.84784 1.10728 5.3043 2.98264 3.42893C4.85801 1.55357 7.40155 0.5 10.0537 0.5C12.7059 0.5 15.2494 1.55357 17.1248 3.42893C19.0001 5.3043 20.0537 7.84784 20.0537 10.5ZM10.0537 6.75C9.83408 6.74979 9.61828 6.80744 9.42802 6.91716C9.23776 7.02688 9.07977 7.1848 8.96996 7.375C8.89067 7.52235 8.7826 7.65227 8.65216 7.75708C8.52172 7.86188 8.37157 7.93943 8.21061 7.98513C8.04964 8.03082 7.88114 8.04374 7.71509 8.02311C7.54904 8.00248 7.38883 7.94871 7.24394 7.86501C7.09906 7.78131 6.97245 7.66937 6.87163 7.53584C6.7708 7.4023 6.69782 7.24987 6.657 7.0876C6.61617 6.92533 6.60835 6.75652 6.63398 6.59117C6.65961 6.42582 6.71818 6.2673 6.80621 6.125C7.21898 5.41014 7.8561 4.85145 8.61874 4.53558C9.38139 4.2197 10.227 4.1643 11.0243 4.37795C11.8216 4.5916 12.5262 5.06237 13.0287 5.71725C13.5313 6.37213 13.8037 7.17453 13.8037 8C13.8039 8.77577 13.5636 9.53253 13.1159 10.1661C12.6682 10.7996 12.0351 11.2787 11.3037 11.5375V11.75C11.3037 12.0815 11.172 12.3995 10.9376 12.6339C10.7032 12.8683 10.3852 13 10.0537 13C9.72219 13 9.40425 12.8683 9.16983 12.6339C8.93541 12.3995 8.80371 12.0815 8.80371 11.75V10.5C8.80371 10.1685 8.93541 9.85054 9.16983 9.61612C9.40425 9.3817 9.72219 9.25 10.0537 9.25C10.3852 9.25 10.7032 9.1183 10.9376 8.88388C11.172 8.64946 11.3037 8.33152 11.3037 8C11.3037 7.66848 11.172 7.35054 10.9376 7.11612C10.7032 6.8817 10.3852 6.75 10.0537 6.75ZM10.0537 16.75C10.3852 16.75 10.7032 16.6183 10.9376 16.3839C11.172 16.1495 11.3037 15.8315 11.3037 15.5C11.3037 15.1685 11.172 14.8505 10.9376 14.6161C10.7032 14.3817 10.3852 14.25 10.0537 14.25C9.72219 14.25 9.40425 14.3817 9.16983 14.6161C8.93541 14.8505 8.80371 15.1685 8.80371 15.5C8.80371 15.8315 8.93541 16.1495 9.16983 16.3839C9.40425 16.6183 9.72219 16.75 10.0537 16.75Z"
    fill="#C4C4C4"
  />
</svg>
