<svg
  width="16"
  height="16"
  viewBox="0 0 23 23"
  fill="none"
  xmlns="http://www.w3.org/2000/svg"
>
  <path
    d="M21.3699 20.6066L14.9904 14.227C15.4528 13.6659 15.8295 13.0438 16.1145 12.3706C16.5089 11.438 16.7092 10.4471 16.7092 9.42718C16.7092 8.40721 16.5089 7.41636 16.1145 6.48375C15.7333 5.58289 15.1881 4.77468 14.4946 4.08029C13.8002 3.38591 12.992 2.84063 12.0911 2.46035C11.1585 2.06595 10.1677 1.86566 9.14774 1.86566C8.12778 1.86566 7.13694 2.06595 6.20434 2.46035C5.30349 2.84151 4.49529 3.38679 3.80091 4.08029C3.10653 4.77468 2.56126 5.58289 2.18098 6.48375C1.78659 7.41636 1.5863 8.40721 1.5863 9.42718C1.5863 10.4471 1.78659 11.438 2.18098 12.3706C2.56214 13.2715 3.10741 14.0797 3.80091 14.7741C4.49529 15.4684 5.30349 16.0137 6.20434 16.394C7.13694 16.7884 8.12778 16.9887 9.14774 16.9887C10.1677 16.9887 11.1585 16.7884 12.0911 16.394C12.7643 16.109 13.3864 15.7323 13.9475 15.2699L20.327 21.6495C20.4708 21.7933 20.6597 21.8657 20.8485 21.8657C21.0373 21.8657 21.2261 21.7933 21.3699 21.6495C21.6584 21.3619 21.6584 20.8942 21.3699 20.6066ZM11.5159 15.0352C10.7659 15.352 9.96917 15.5134 9.14685 15.5134C8.32454 15.5134 7.52781 15.3529 6.77784 15.0352C6.05346 14.7291 5.40231 14.2897 4.84292 13.7303C4.28354 13.1709 3.84503 12.5197 3.53798 11.7953C3.22123 11.0454 3.05977 10.2486 3.05977 9.4263C3.05977 8.60397 3.22035 7.80723 3.53798 7.05726C3.84415 6.33287 4.28354 5.68171 4.84292 5.12232C5.40231 4.56293 6.05346 4.12441 6.77784 3.81736C7.52781 3.50061 8.32454 3.33914 9.14685 3.33914C9.96917 3.33914 10.7659 3.49973 11.5159 3.81736C12.2402 4.12353 12.8914 4.56293 13.4508 5.12232C14.0102 5.68171 14.4487 6.33287 14.7557 7.05726C15.0725 7.80723 15.2339 8.60397 15.2339 9.4263C15.2339 10.2486 15.0734 11.0454 14.7557 11.7953C14.4496 12.5197 14.0102 13.1709 13.4508 13.7303C12.8914 14.2897 12.2402 14.7282 11.5159 15.0352Z"
    stroke="#D7D7D7"
    stroke-width="1"
  />
</svg>